{
  "accessors": [
    {
      "bufferView": 3,
      "componentType": 5126,
      "count": 1622,
      "max": [
        5.0156292915344238,
        6.5778307914733887,
        1.5854774713516235
      ],
      "min": [
        -3.015629768371582,
        -6.5778307914733887,
        -1.5854774713516235
      ],
      "type": "VEC3"
    },
    {
      "bufferView": 3,
      "byteOffset": 19464,
      "componentType": 5126,
      "count": 1622,
      "max": [
        0.99961882829666138,
        0.99994128942489624,
        0.99932169914245605
      ],
      "min": [
        -0.99684000015258789,
        -0.98601078987121582,
        -0.99986898899078369
      ],
      "type": "VEC3"
    },
    {
      "bufferView": 4,
      "componentType": 5126,
      "count": 1622,
      "max": [
        0.99689120054244995,
        0.058077525347471237,
        0.21121163666248322,
        1
      ],
      "min": [
        -0.98279213905334473,
        -0.13655494153499603,
        -0.11326092481613159,
        -1
      ],
      "type": "VEC4"
    },
    {
      "bufferView": 2,
      "componentType": 5126,
      "count": 1622,
      "max": [
        1,
        1.8721799850463867
      ],
      "min": [
        0,
        -0.72023999691009521
      ],
      "type": "VEC2"
    },
    {
      "bufferView": 1,
      "componentType": 5125,
      "count": 2424,
      "max": [
        1621
      ],
      "min": [
        0
      ],
      "type": "SCALAR"
    },
    {
      "bufferView": 5,
      "componentType": 5126,
      "count": 21,
      "max": [
        1,
        0.85861998796463013,
        0.26313000917434692,
        0,
        0.46549001336097717,
        1,
        0.048340000212192535,
        0,
        0.076410003006458282,
        0.12939000129699707,
        1,
        0,
        2.2893500328063965,
        6.9411501884460449,
        0.90574002265930176,
        1
      ],
      "min": [
        -0.9997599720954895,
        -0.46529999375343323,
        -0.1415800005197525,
        0,
        -0.89442998170852661,
        -0.99412000179290771,
        -0.5985100269317627,
        0,
        -0.051120001822710037,
        -0.61386001110076904,
        -0.99159002304077148,
        0,
        -1.7995599508285522,
        -4.6706500053405762,
        -2.8306300640106201,
        1
      ],
      "type": "MAT4"
    },
    {
      "bufferView": 0,
      "componentType": 5123,
      "count": 1622,
      "max": [
        20,
        20,
        19,
        18
      ],
      "min": [
        1,
        1,
        1,
        1
      ],
      "type": "VEC4"
    },
    {
      "bufferView": 4,
      "byteOffset": 25952,
      "componentType": 5126,
      "count": 1622,
      "max": [
        1,
        0.49609535932540894,
        0.22766026854515076,
        0.1091025099158287
      ],
      "min": [
        0.40567553043365479,
        0,
        0,
        0
      ],
      "type": "VEC4"
    }
  ],
  "asset": {
    "extras": {
      "author": "JanoschABR (https://sketchfab.com/JanoschABR)",
      "license": "CC-BY-4.0 (http://creativecommons.org/licenses/by/4.0/)",
      "source": "https://sketchfab.com/3d-models/rigged-lowpoly-hand-4a4a1ee282394250baba501a0d4ff0fc",
      "title": "Rigged Lowpoly Hand"
    },
    "generator": "Sketchfab-4.91.0",
    "version": "2.0"
  },
  "bufferViews": [
    {
      "buffer": 0,
      "byteLength": 12976,
      "byteOffset": 0,
      "byteStride": 8,
      "name": "shortBufferViews",
      "target": 34962
    },
    {
      "buffer": 0,
      "byteLength": 9696,
      "byteOffset": 12976,
      "name": "floatBufferViews",
      "target": 34963
    },
    {
      "buffer": 0,
      "byteLength": 12976,
      "byteOffset": 22672,
      "byteStride": 8,
      "name": "floatBufferViews",
      "target": 34962
    },
    {
      "buffer": 0,
      "byteLength": 38928,
      "byteOffset": 35648,
      "byteStride": 12,
      "name": "floatBufferViews",
      "target": 34962
    },
    {
      "buffer": 0,
      "byteLength": 51904,
      "byteOffset": 74576,
      "byteStride": 16,
      "name": "floatBufferViews",
      "target": 34962
    },
    {
      "buffer": 0,
      "byteLength": 1344,
      "byteOffset": 126480,
      "byteStride": 64,
      "name": "floatBufferViews"
    }
  ],
  "buffers": [
    {
      "byteLength": 127824,
      "uri": "scene.bin"
    }
  ],
  "materials": [
    {
      "doubleSided": true,
      "emissiveFactor": [
        0,
        0,
        0
      ],
      "name": "Material___46",
      "pbrMetallicRoughness": {
        "baseColorFactor": [
          0.58799999950000004,
          0.58799999950000004,
          0.58799999950000004,
          1
        ],
        "metallicFactor": 0,
        "roughnessFactor": 0.59999999999999998
      }
    }
  ],
  "meshes": [
    {
      "name": "mesh",
      "primitives": [
        {
          "attributes": {
            "JOINTS_0": 6,
            "NORMAL": 1,
            "POSITION": 0,
            "TANGENT": 2,
            "TEXCOORD_0": 3,
            "WEIGHTS_0": 7
          },
          "indices": 4,
          "material": 0,
          "mode": 4
        }
      ]
    }
  ],
  "nodes": [
    {
      "children": [
        1
      ],
      "name": "RootNode (gltf orientation matrix)",
      "rotation": [
        -0.70710678118654746,
        -0,
        -0,
        0.70710678118654757
      ]
    },
    {
      "children": [
        2
      ],
      "matrix": [
        -0.00083859747974202037,
        0,
        -0.99999964237213135,
        0,
        0,
        1,
        0,
        0,
        0.99999964237213135,
        0,
        -0.00083859747974202037,
        0,
        -2.1038615703582764,
        0,
        2.2075569629669189,
        1
      ],
      "name": "RootNode (model correction matrix)"
    },
    {
      "children": [
        3
      ],
      "name": "Root"
    },
    {
      "children": [
        4,
        26,
        25
      ],
      "name": "Armature"
    },
    {
      "children": [
        5
      ],
      "name": "Armature_rootJoint"
    },
    {
      "children": [
        6,
        9,
        13,
        17,
        21
      ],
      "name": "Bone_Armature",
      "rotation": [
        0.96021002531051636,
        0,
        0,
        0.27927890419960022
      ],
      "scale": [
        1,
        1.0000090599060059,
        0.99999904632568359
      ],
      "translation": [
        0,
        7,
        0
      ]
    },
    {
      "children": [
        7
      ],
      "name": "Bone.001_Armature",
      "rotation": [
        0.52417051792144775,
        0.83252072334289551,
        0.17468826472759247,
        0.040479432791471481
      ],
      "scale": [
        1.0000039339065552,
        0.99999934434890747,
        0.99999392032623291
      ],
      "translation": [
        0,
        5.0423898696899414,
        0
      ]
    },
    {
      "children": [
        8
      ],
      "name": "Bone.002_Armature",
      "rotation": [
        -0.40214058756828308,
        0.39337274432182312,
        -0.41173121333122253,
        0.71695065498352051
      ],
      "scale": [
        0.99999594688415527,
        1.000002384185791,
        0.99999374151229858
      ],
      "translation": [
        0,
        2.3293099403381348,
        0
      ]
    },
    {
      "name": "Bone.003_Armature",
      "rotation": [
        -0.065125986933708191,
        -0.16985917091369629,
        -0.54760146141052246,
        0.81672459840774536
      ],
      "scale": [
        0.99999415874481201,
        0.9999958872795105,
        0.99999743700027466
      ],
      "translation": [
        0,
        2.3342399597167969,
        0
      ]
    },
    {
      "children": [
        10
      ],
      "name": "Bone.004_Armature",
      "rotation": [
        0.19697807729244232,
        0.97926932573318481,
        0.044178284704685211,
        -0.01671898178756237
      ],
      "scale": [
        0.99999821186065674,
        1.0000060796737671,
        1.0000025033950806
      ],
      "translation": [
        0,
        5.0423898696899414,
        0
      ]
    },
    {
      "children": [
        11
      ],
      "name": "Bone.005_Armature",
      "rotation": [
        -0.15063835680484772,
        0.01145867258310318,
        -0.10148470103740692,
        0.9832993745803833
      ],
      "scale": [
        0.9999992847442627,
        1.0000039339065552,
        0.99999630451202393
      ],
      "translation": [
        0,
        4.2542099952697754,
        0
      ]
    },
    {
      "children": [
        12
      ],
      "name": "Bone.006_Armature",
      "rotation": [
        -0.079248450696468353,
        0.026287676766514778,
        -0.073382109403610229,
        0.99380266666412354
      ],
      "scale": [
        1.0000027418136597,
        0.99999761581420898,
        1.0000050067901611
      ],
      "translation": [
        0,
        1.7555899620056152,
        0
      ]
    },
    {
      "name": "Bone.007_Armature",
      "rotation": [
        -0.078520923852920532,
        -0.012957231141626835,
        0.023593861609697342,
        0.99654901027679443
      ],
      "scale": [
        0.99999910593032837,
        1.0000046491622925,
        0.9999966025352478
      ],
      "translation": [
        0,
        1.5334700345993042,
        0
      ]
    },
    {
      "children": [
        14
      ],
      "name": "Bone.008_Armature",
      "rotation": [
        0.052577350288629532,
        0.997242271900177,
        0.05221899226307869,
        -0.004081246443092823
      ],
      "scale": [
        1.0000038146972656,
        1.000001072883606,
        0.99999666213989258
      ],
      "translation": [
        0,
        5.0423898696899414,
        0
      ]
    },
    {
      "children": [
        15
      ],
      "name": "Bone.009_Armature",
      "rotation": [
        -0.67196542024612427,
        0.051602523773908615,
        -0.0096051814034581184,
        0.7387201189994812
      ],
      "scale": [
        0.99999904632568359,
        1.0000002384185791,
        1.0000035762786865
      ],
      "translation": [
        0,
        4.4828600883483887,
        0
      ]
    },
    {
      "children": [
        16
      ],
      "name": "Bone.010_Armature",
      "rotation": [
        -0.63484704494476318,
        0.047791052609682083,
        -0.064533576369285583,
        0.76845341920852661
      ],
      "scale": [
        0.99999463558197021,
        1.0000020265579224,
        0.99999886751174927
      ],
      "translation": [
        0,
        1.9122500419616699,
        0
      ]
    },
    {
      "name": "Bone.011_Armature",
      "rotation": [
        -0.10271703451871872,
        -0.080653190612792969,
        0.0012255505425855517,
        0.99143469333648682
      ],
      "scale": [
        1.000004768371582,
        1.0000064373016357,
        0.99999779462814331
      ],
      "translation": [
        0,
        1.3402099609375,
        0
      ]
    },
    {
      "children": [
        18
      ],
      "name": "Bone.012_Armature",
      "rotation": [
        -0.084055662155151367,
        0.99559164047241211,
        0.041274260729551315,
        -0.0053309453651309013
      ],
      "scale": [
        0.99999570846557617,
        0.99999785423278809,
        1.000005841255188
      ],
      "translation": [
        0,
        5.0423898696899414,
        0
      ]
    },
    {
      "children": [
        19
      ],
      "name": "Bone.013_Armature",
      "rotation": [
        -0.72438764572143555,
        -0.082937337458133698,
        0.01571086049079895,
        0.68420553207397461
      ],
      "scale": [
        1.0000028610229492,
        1.0000044107437134,
        0.99999362230300903
      ],
      "translation": [
        0,
        4.5143098831176758,
        0
      ]
    },
    {
      "children": [
        20
      ],
      "name": "Bone.014_Armature",
      "rotation": [
        -0.48231613636016846,
        -0.031153369694948196,
        0.035184729844331741,
        0.87473577260971069
      ],
      "scale": [
        0.99999523162841797,
        1.0000069141387939,
        0.99999898672103882
      ],
      "translation": [
        0,
        1.9105199575424194,
        0
      ]
    },
    {
      "name": "Bone.015_Armature",
      "rotation": [
        -0.47681784629821777,
        0.011334563605487347,
        -0.017656365409493446,
        0.87875169515609741
      ],
      "scale": [
        1.0000017881393433,
        1.0000048875808716,
        0.99999630451202393
      ],
      "translation": [
        0,
        0.95902001857757568,
        0
      ]
    },
    {
      "children": [
        22
      ],
      "name": "Bone.016_Armature",
      "rotation": [
        -0.23950722813606262,
        0.9681241512298584,
        0.072500988841056824,
        0.010747662745416164
      ],
      "scale": [
        1.000002384185791,
        0.99999529123306274,
        1.0000045299530029
      ],
      "translation": [
        0,
        5.0423898696899414,
        0
      ]
    },
    {
      "children": [
        23
      ],
      "name": "Bone.017_Armature",
      "rotation": [
        -0.52104359865188599,
        -0.16423316299915314,
        0.04175800085067749,
        0.83653885126113892
      ],
      "scale": [
        1.0000026226043701,
        0.99999654293060303,
        0.99999994039535522
      ],
      "translation": [
        0,
        4.3975400924682617,
        0
      ]
    },
    {
      "children": [
        24
      ],
      "name": "Bone.018_Armature",
      "rotation": [
        -0.65186434984207153,
        -0.15947219729423523,
        -0.026914317160844803,
        0.74088943004608154
      ],
      "scale": [
        1.0000035762786865,
        0.99999284744262695,
        0.99999725818634033
      ],
      "translation": [
        0,
        1.281980037689209,
        0
      ]
    },
    {
      "name": "Bone.019_Armature",
      "rotation": [
        -0.49067580699920654,
        -0.083857998251914978,
        -0.097348608076572418,
        0.8618168830871582
      ],
      "scale": [
        0.99999499320983887,
        1.000003457069397,
        0.99999803304672241
      ],
      "translation": [
        0,
        0.97149002552032471,
        0
      ]
    },
    {
      "matrix": [
        0.12100000000000001,
        0,
        0,
        0,
        0,
        0.12100000000000001,
        0,
        0,
        0,
        0,
        0.12100000000000001,
        0,
        0,
        0,
        0,
        1
      ],
      "name": "mesh"
    },
    {
      "mesh": 0,
      "name": "mesh_0",
      "skin": 0
    }
  ],
  "scene": 0,
  "scenes": [
    {
      "name": "OSG_Scene",
      "nodes": [
        0
      ]
    }
  ],
  "skins": [
    {
      "inverseBindMatrices": 5,
      "joints": [
        4,
        5,
        6,
        7,
        8,
        9,
        10,
        11,
        12,
        13,
        14,
        15,
        16,
        17,
        18,
        19,
        20,
        21,
        22,
        23,
        24
      ],
      "skeleton": 4
    }
  ]
}

